<svg width="23" height="27" viewBox="0 0 23 27" fill="none" xmlns="http://www.w3.org/2000/svg">
<g filter="url(#filter0_d_2_411)">
<path fill-rule="evenodd" clip-rule="evenodd" d="M10.3383 12.2417C10.3231 12.2936 10.3093 12.3368 10.2976 12.3806C9.63626 14.9706 9.56301 15.546 8.88384 16.7497C8.55926 17.321 8.1945 17.8628 7.79056 18.3817C7.74477 18.4402 7.70255 18.5155 7.61148 18.4972C7.51177 18.4758 7.50412 18.3863 7.49293 18.3064C7.38406 17.5194 7.32455 16.7298 7.3505 15.9357C7.38458 14.9004 7.51276 14.5453 8.8472 8.93284C8.86704 8.84737 8.84516 8.77666 8.81667 8.69882C8.49718 7.83752 8.43411 6.96299 8.7129 6.07676C9.31678 4.16236 11.4871 4.01584 11.8666 5.59549C12.1001 6.57227 11.482 7.85023 11.0073 9.7397C10.6141 11.299 12.4491 12.407 14.0181 11.269C15.4639 10.22 16.0256 7.70423 15.9187 5.92159C15.7086 2.36752 11.8117 1.59932 9.33815 2.74399C6.50394 4.05451 5.85935 7.56839 7.13935 9.17398C7.30113 9.37849 7.4263 9.50314 7.37289 9.71071C7.29047 10.0317 7.21772 10.3558 7.1292 10.6758C7.06306 10.9134 6.8636 11.0004 6.62297 10.9022C6.15136 10.7114 5.75812 10.4112 5.43914 10.0154C4.35247 8.66982 4.04161 6.00706 5.4783 3.75384C7.07066 1.25642 10.0326 0.246569 12.736 0.553341C15.9655 0.920144 18.0066 3.12707 18.3892 5.63008C18.5632 6.77069 18.438 9.5825 16.8375 11.5702C14.9953 13.8539 12.0101 14.005 10.6329 12.6034C10.5271 12.4961 10.4421 12.3699 10.3383 12.2417Z" fill="white"/>
</g>
<defs>
<filter id="filter0_d_2_411" x="0.509735" y="0.5" width="21.9386" height="26" filterUnits="userSpaceOnUse" color-interpolation-filters="sRGB">
<feFlood flood-opacity="0" result="BackgroundImageFix"/>
<feColorMatrix in="SourceAlpha" type="matrix" values="0 0 0 0 0 0 0 0 0 0 0 0 0 0 0 0 0 0 127 0" result="hardAlpha"/>
<feOffset dy="4"/>
<feGaussianBlur stdDeviation="2"/>
<feComposite in2="hardAlpha" operator="out"/>
<feColorMatrix type="matrix" values="0 0 0 0 0 0 0 0 0 0 0 0 0 0 0 0 0 0 0.25 0"/>
<feBlend mode="normal" in2="BackgroundImageFix" result="effect1_dropShadow_2_411"/>
<feBlend mode="normal" in="SourceGraphic" in2="effect1_dropShadow_2_411" result="shape"/>
</filter>
</defs>
</svg>
