<svg width="70" height="50" viewBox="0 0 70 50" fill="none" xmlns="http://www.w3.org/2000/svg">
<path d="M39.7719 12.3454C40.9881 11.1262 41.7406 9.44386 41.7406 7.58513C41.7406 3.86267 38.7226 0.844727 35.0001 0.844727C32.6467 0.844727 30.5777 2.0529 29.372 3.88065C29.0517 4.20143 2.21949 37.2729 1.96866 37.6532C0.752489 38.8723 0 40.5552 0 42.4129C0 46.1359 3.01794 49.1538 6.7404 49.1538C9.0938 49.1538 11.1629 47.9461 12.3686 46.1179C12.6889 45.7971 39.5211 12.7251 39.7719 12.3454Z" fill="#20DC49"/>
<path d="M55.2974 28.0394C56.5171 26.8192 57.271 25.1348 57.271 23.2736C57.271 19.5511 54.2531 16.5332 50.5306 16.5332C48.1762 16.5332 46.1061 17.7424 44.9005 19.5716C44.5777 19.8949 30.4848 37.2666 30.2325 37.6493C29.0128 38.8695 28.2588 40.5538 28.2588 42.4146C28.2588 46.1375 31.2767 49.1555 34.9992 49.1555C37.3536 49.1555 39.4237 47.9463 40.6289 46.1171C40.9517 45.7943 55.0451 28.4221 55.2974 28.0394Z" fill="#20DC49"/>
<path d="M70.0001 7.58513C70.0001 11.3081 66.9822 14.3255 63.2597 14.3255C59.5367 14.3255 56.5193 11.3081 56.5193 7.58513C56.5193 3.86267 59.5367 0.844727 63.2597 0.844727C66.9822 0.844727 70.0001 3.86267 70.0001 7.58513Z" fill="#20DC49"/>
<path d="M13.4808 7.58513C13.4808 11.3081 10.4629 14.3255 6.7404 14.3255C3.01794 14.3255 0 11.3081 0 7.58513C0 3.86267 3.01794 0.844727 6.7404 0.844727C10.4629 0.844727 13.4808 3.86267 13.4808 7.58513Z" fill="#20DC49"/>
</svg>
