<svg width="31" height="27" viewBox="0 0 31 27" fill="none" xmlns="http://www.w3.org/2000/svg">
<g filter="url(#filter0_d_2_409)">
<path d="M26.4202 2.65762C25.7253 2.97202 24.9576 3.16229 24.2082 3.28795C24.5638 3.22842 25.0863 2.58436 25.2959 2.32389C25.6154 1.92707 25.8804 1.47428 26.0295 0.985381C26.0488 0.947225 26.0636 0.899404 26.0249 0.870406C25.9771 0.851583 25.9461 0.861255 25.9079 0.880079C25.071 1.32828 24.2062 1.65336 23.2854 1.88382C23.2091 1.90265 23.1521 1.88382 23.1042 1.83549C23.0284 1.74951 22.9562 1.66812 22.8753 1.60147C22.4882 1.27232 22.073 1.01387 21.605 0.823092C20.9904 0.572791 20.3189 0.46647 19.657 0.509204C19.0124 0.55143 18.3801 0.732542 17.8088 1.03117C17.2359 1.33031 16.7246 1.74697 16.3171 2.2491C15.8964 2.76903 15.5861 3.38207 15.4268 4.03275C15.2742 4.66053 15.2864 5.2812 15.38 5.9156C15.3943 6.02091 15.3846 6.03515 15.2895 6.02091C11.6881 5.4847 8.70277 4.19656 6.27913 1.43461C6.17382 1.31454 6.11685 1.31454 6.03087 1.44376C4.97015 3.03357 5.48447 5.58695 6.80923 6.84202C6.98628 7.0099 7.16741 7.17677 7.36328 7.32939C7.29155 7.34414 6.41039 7.24901 5.62438 6.84202C5.51958 6.77537 5.46618 6.81404 5.45702 6.93308C5.44735 7.10504 5.46209 7.26326 5.48549 7.44946C5.68899 9.06064 6.80518 10.5507 8.33344 11.1327C8.51455 11.2091 8.71551 11.2757 8.91087 11.3093C8.56289 11.3856 8.20423 11.44 7.20557 11.3617C7.08144 11.3383 7.03411 11.4003 7.08143 11.5199C7.83233 13.5645 9.45113 14.1735 10.6645 14.5199C10.8268 14.5484 10.9896 14.5484 11.1524 14.5866C11.1422 14.6013 11.1325 14.6013 11.1229 14.6156C10.7209 15.2286 9.326 15.685 8.67634 15.9119C7.49504 16.325 6.20844 16.5107 4.95998 16.3875C4.76056 16.358 4.71833 16.3606 4.66441 16.3875C4.60946 16.4216 4.65678 16.4694 4.72139 16.5213C4.97474 16.6887 5.23266 16.8368 5.49568 16.9802C6.2883 17.4004 7.115 17.7352 7.97986 17.9738C12.4441 19.2065 17.4725 18.3004 20.8246 14.9702C23.4568 12.3547 24.3797 8.74776 24.3797 5.13671C24.3797 4.99528 24.5465 4.91744 24.6452 4.84266C25.3305 4.32832 25.883 3.71224 26.3938 3.02493C26.5087 2.87027 26.5097 2.73291 26.5097 2.67644C26.5097 2.66677 26.5097 2.65762 26.5097 2.65762C26.5097 2.59962 26.5087 2.61743 26.4202 2.65762Z" fill="white"/>
</g>
<defs>
<filter id="filter0_d_2_409" x="0.640259" y="0.5" width="29.8695" height="26" filterUnits="userSpaceOnUse" color-interpolation-filters="sRGB">
<feFlood flood-opacity="0" result="BackgroundImageFix"/>
<feColorMatrix in="SourceAlpha" type="matrix" values="0 0 0 0 0 0 0 0 0 0 0 0 0 0 0 0 0 0 127 0" result="hardAlpha"/>
<feOffset dy="4"/>
<feGaussianBlur stdDeviation="2"/>
<feComposite in2="hardAlpha" operator="out"/>
<feColorMatrix type="matrix" values="0 0 0 0 0 0 0 0 0 0 0 0 0 0 0 0 0 0 0.25 0"/>
<feBlend mode="normal" in2="BackgroundImageFix" result="effect1_dropShadow_2_409"/>
<feBlend mode="normal" in="SourceGraphic" in2="effect1_dropShadow_2_409" result="shape"/>
</filter>
</defs>
</svg>
