<svg width="35" height="27" viewBox="0 0 35 27" fill="none" xmlns="http://www.w3.org/2000/svg">
<g filter="url(#filter0_d_2_418)">
<path d="M21.6336 10.0035L15.1627 13.205C14.9088 13.3416 14.0469 13.1578 14.0469 12.8695V6.29853C14.0469 6.00671 14.916 5.8229 15.1699 5.96738L21.3639 9.33693C21.6236 9.48498 21.8961 9.86121 21.6336 10.0035ZM30.1186 6.14262C30.1186 3.02627 27.5923 0.5 24.476 0.5H10.0465C6.93018 0.5 4.40463 3.02627 4.40463 6.14262V12.8574C4.40463 15.9744 6.93018 18.5 10.0465 18.5H24.476C27.5923 18.5 30.1186 15.9744 30.1186 12.8574V6.14262Z" fill="white"/>
</g>
<defs>
<filter id="filter0_d_2_418" x="0.404633" y="0.5" width="33.714" height="26" filterUnits="userSpaceOnUse" color-interpolation-filters="sRGB">
<feFlood flood-opacity="0" result="BackgroundImageFix"/>
<feColorMatrix in="SourceAlpha" type="matrix" values="0 0 0 0 0 0 0 0 0 0 0 0 0 0 0 0 0 0 127 0" result="hardAlpha"/>
<feOffset dy="4"/>
<feGaussianBlur stdDeviation="2"/>
<feComposite in2="hardAlpha" operator="out"/>
<feColorMatrix type="matrix" values="0 0 0 0 0 0 0 0 0 0 0 0 0 0 0 0 0 0 0.25 0"/>
<feBlend mode="normal" in2="BackgroundImageFix" result="effect1_dropShadow_2_418"/>
<feBlend mode="normal" in="SourceGraphic" in2="effect1_dropShadow_2_418" result="shape"/>
</filter>
</defs>
</svg>
