<svg width="27" height="27" viewBox="0 0 27 27" fill="none" xmlns="http://www.w3.org/2000/svg">
<g filter="url(#filter0_d_2_415)">
<path d="M9.52873 15.3997L9.83347 15.5813C10.9522 16.2478 12.2251 16.6003 13.5138 16.6003C17.4896 16.6003 20.7237 13.3662 20.7237 9.39036C20.7237 5.41501 17.4896 2.1804 13.5138 2.1804C9.53891 2.1804 6.30378 5.41501 6.30378 9.39036C6.30378 10.7029 6.66854 11.9957 7.35891 13.1286L7.54563 13.4354L6.82523 16.1241L9.52873 15.3997ZM4.44836 18.5L5.73855 13.6857C5.00799 12.367 4.6239 10.8902 4.6239 9.39036C4.6239 4.48858 8.61146 0.5 13.5138 0.5C18.416 0.5 22.4046 4.48858 22.4046 9.39036C22.4046 14.2927 18.416 18.2812 13.5138 18.2812C12.0425 18.2812 10.5889 17.9093 9.28808 17.2042L4.44836 18.5Z" fill="white"/>
<path fill-rule="evenodd" clip-rule="evenodd" d="M16.8209 10.6271C16.4546 10.4079 15.9789 10.1637 15.5475 10.3397C15.2173 10.4755 15.0061 10.9934 14.7915 11.2575C14.6816 11.3933 14.5503 11.4142 14.3814 11.3465C13.1401 10.8515 12.1887 10.0228 11.5034 8.88112C11.3874 8.70357 11.4083 8.56367 11.5482 8.39934C11.7552 8.15565 12.0152 7.87889 12.0712 7.55024C12.1271 7.2221 11.973 6.8385 11.8372 6.54546C11.6637 6.17204 11.4699 5.63939 11.0954 5.42775C10.7515 5.23341 10.2982 5.34227 9.99195 5.59156C9.46285 6.02298 9.20744 6.69759 9.21507 7.3671C9.21761 7.55737 9.24102 7.74713 9.28528 7.93028C9.39212 8.37136 9.59562 8.78395 9.82557 9.17518C9.99855 9.47076 10.1868 9.7577 10.3898 10.0334C11.0537 10.9355 11.8799 11.7194 12.8364 12.3055C13.3146 12.598 13.8289 12.855 14.3621 13.031C14.9598 13.2284 15.4925 13.4339 16.1381 13.3113C16.8137 13.1831 17.4807 12.7649 17.7488 12.1137C17.8282 11.9204 17.8679 11.7057 17.8236 11.5022C17.7315 11.0809 17.1617 10.8306 16.8209 10.6271Z" fill="white"/>
</g>
<defs>
<filter id="filter0_d_2_415" x="0.448364" y="0.5" width="25.9563" height="26" filterUnits="userSpaceOnUse" color-interpolation-filters="sRGB">
<feFlood flood-opacity="0" result="BackgroundImageFix"/>
<feColorMatrix in="SourceAlpha" type="matrix" values="0 0 0 0 0 0 0 0 0 0 0 0 0 0 0 0 0 0 127 0" result="hardAlpha"/>
<feOffset dy="4"/>
<feGaussianBlur stdDeviation="2"/>
<feComposite in2="hardAlpha" operator="out"/>
<feColorMatrix type="matrix" values="0 0 0 0 0 0 0 0 0 0 0 0 0 0 0 0 0 0 0.25 0"/>
<feBlend mode="normal" in2="BackgroundImageFix" result="effect1_dropShadow_2_415"/>
<feBlend mode="normal" in="SourceGraphic" in2="effect1_dropShadow_2_415" result="shape"/>
</filter>
</defs>
</svg>
